<svg width="1440" height="710" viewBox="0 0 1440 710" fill="none" xmlns="http://www.w3.org/2000/svg">
<mask id="mask0_824_15" style="mask-type:alpha" maskUnits="userSpaceOnUse" x="0" y="0" width="1440" height="710">
<rect width="1440" height="710" fill="#D9D9D9"/>
</mask>
<g mask="url(#mask0_824_15)">
<path d="M1440 701L1440 0L0 -6.29444e-05L-3.06417e-05 701L1440 701Z" fill="url(#paint0_linear_824_15)"/>
<g clip-path="url(#clip0_824_15)">
<g style="mix-blend-mode:soft-light">
<path d="M330.666 -615.937C330.666 -615.937 508.597 -209.543 252.382 301.126C-3.83395 811.822 361.176 1189.24 851.743 1192.25" stroke="white" stroke-miterlimit="10"/>
</g>
<g style="mix-blend-mode:soft-light">
<path d="M449.428 -492.546C449.428 -492.546 631.642 -223.291 469.812 90.8305C307.982 404.952 67.3123 754.423 728.169 1069.92" stroke="white" stroke-miterlimit="10"/>
</g>
<g style="mix-blend-mode:soft-light">
<path d="M538.473 1546.19C531.678 1539.4 -141.34 1315.25 46.1879 839.107C233.716 362.993 90.6575 148.229 -311.604 -112.618" stroke="white" stroke-miterlimit="10"/>
</g>
<g style="mix-blend-mode:soft-light">
<path d="M1800.22 -785.543C1800.22 -785.543 1813.73 -342.108 1385.51 36.1282C957.286 414.364 1155.15 900.71 1609.21 1086.52" stroke="white" stroke-miterlimit="10"/>
</g>
<g style="mix-blend-mode:soft-light">
<path d="M1904.34 -562.556C1904.34 -562.556 1972.97 -244.76 1705.65 -13.6828C1438.33 217.394 1084.67 451.882 1580.15 991.105" stroke="white" stroke-miterlimit="10"/>
</g>
<g style="mix-blend-mode:soft-light">
<path d="M1370.1 1062.25C1366.32 1053.39 709.874 635.791 1061.45 263.979C1413.03 -107.832 1360.42 -360.43 1084.51 -752.521" stroke="white" stroke-miterlimit="10"/>
</g>
<g clip-path="url(#clip1_824_15)">
<path d="M1115.74 388.501C1117.25 388.501 1118.48 387.27 1118.48 385.751C1118.48 384.231 1117.25 383 1115.74 383C1114.23 383 1113 384.231 1113 385.751C1113 387.27 1114.23 388.501 1115.74 388.501Z" fill="white"/>
<path d="M1149.37 388.501C1150.88 388.501 1152.11 387.27 1152.11 385.751C1152.11 384.231 1150.88 383 1149.37 383C1147.86 383 1146.63 384.231 1146.63 385.751C1146.63 387.27 1147.86 388.501 1149.37 388.501Z" fill="white"/>
<path d="M1183 388.501C1184.51 388.501 1185.74 387.27 1185.74 385.751C1185.74 384.231 1184.51 383 1183 383C1181.49 383 1180.26 384.231 1180.26 385.751C1180.26 387.27 1181.49 388.501 1183 388.501Z" fill="white"/>
<path d="M1216.63 388.501C1218.14 388.501 1219.37 387.27 1219.37 385.751C1219.37 384.231 1218.14 383 1216.63 383C1215.12 383 1213.89 384.231 1213.89 385.751C1213.89 387.27 1215.12 388.501 1216.63 388.501Z" fill="white"/>
<path d="M1253 385.751C1253 387.274 1251.78 388.501 1250.26 388.501C1248.75 388.501 1247.52 387.274 1247.52 385.751C1247.52 384.227 1248.75 383 1250.26 383C1251.78 383 1253 384.227 1253 385.751Z" fill="white"/>
<path d="M1115.74 418.12C1117.25 418.12 1118.48 416.889 1118.48 415.37C1118.48 413.851 1117.25 412.619 1115.74 412.619C1114.23 412.619 1113 413.851 1113 415.37C1113 416.889 1114.23 418.12 1115.74 418.12Z" fill="white"/>
<path d="M1149.37 418.12C1150.88 418.12 1152.11 416.889 1152.11 415.37C1152.11 413.851 1150.88 412.619 1149.37 412.619C1147.86 412.619 1146.63 413.851 1146.63 415.37C1146.63 416.889 1147.86 418.12 1149.37 418.12Z" fill="white"/>
<path d="M1183 418.12C1184.51 418.12 1185.74 416.889 1185.74 415.37C1185.74 413.851 1184.51 412.619 1183 412.619C1181.49 412.619 1180.26 413.851 1180.26 415.37C1180.26 416.889 1181.49 418.12 1183 418.12Z" fill="white"/>
<path d="M1216.63 418.12C1218.14 418.12 1219.37 416.889 1219.37 415.37C1219.37 413.851 1218.14 412.619 1216.63 412.619C1215.12 412.619 1213.89 413.851 1213.89 415.37C1213.89 416.889 1215.12 418.12 1216.63 418.12Z" fill="white"/>
<path d="M1253 415.37C1253 416.893 1251.78 418.12 1250.26 418.12C1248.75 418.12 1247.52 416.893 1247.52 415.37C1247.52 413.847 1248.75 412.619 1250.26 412.619C1251.78 412.619 1253 413.847 1253 415.37V415.37Z" fill="white"/>
<path d="M1115.74 447.739C1117.25 447.739 1118.48 446.508 1118.48 444.989C1118.48 443.469 1117.25 442.238 1115.74 442.238C1114.23 442.238 1113 443.469 1113 444.989C1113 446.508 1114.23 447.739 1115.74 447.739Z" fill="white"/>
<path d="M1149.37 447.739C1150.88 447.739 1152.11 446.508 1152.11 444.989C1152.11 443.469 1150.88 442.238 1149.37 442.238C1147.86 442.238 1146.63 443.469 1146.63 444.989C1146.63 446.508 1147.86 447.739 1149.37 447.739Z" fill="white"/>
<path d="M1183 447.739C1184.51 447.739 1185.74 446.508 1185.74 444.989C1185.74 443.469 1184.51 442.238 1183 442.238C1181.49 442.238 1180.26 443.469 1180.26 444.989C1180.26 446.508 1181.49 447.739 1183 447.739Z" fill="white"/>
<path d="M1216.63 447.739C1218.14 447.739 1219.37 446.508 1219.37 444.989C1219.37 443.469 1218.14 442.238 1216.63 442.238C1215.12 442.238 1213.89 443.469 1213.89 444.989C1213.89 446.508 1215.12 447.739 1216.63 447.739Z" fill="white"/>
<path d="M1253 444.989C1253 446.512 1251.78 447.739 1250.26 447.739C1248.75 447.739 1247.52 446.512 1247.52 444.989C1247.52 443.466 1248.75 442.238 1250.26 442.238C1251.78 442.238 1253 443.466 1253 444.989Z" fill="white"/>
<path d="M1115.74 477.381C1117.25 477.381 1118.48 476.149 1118.48 474.63C1118.48 473.111 1117.25 471.88 1115.74 471.88C1114.23 471.88 1113 473.111 1113 474.63C1113 476.149 1114.23 477.381 1115.74 477.381Z" fill="white"/>
<path d="M1149.37 477.381C1150.88 477.381 1152.11 476.149 1152.11 474.63C1152.11 473.111 1150.88 471.88 1149.37 471.88C1147.86 471.88 1146.63 473.111 1146.63 474.63C1146.63 476.149 1147.86 477.381 1149.37 477.381Z" fill="white"/>
<path d="M1183 477.381C1184.51 477.381 1185.74 476.149 1185.74 474.63C1185.74 473.111 1184.51 471.88 1183 471.88C1181.49 471.88 1180.26 473.111 1180.26 474.63C1180.26 476.149 1181.49 477.381 1183 477.381Z" fill="white"/>
<path d="M1216.63 477.381C1218.14 477.381 1219.37 476.149 1219.37 474.63C1219.37 473.111 1218.14 471.88 1216.63 471.88C1215.12 471.88 1213.89 473.111 1213.89 474.63C1213.89 476.149 1215.12 477.381 1216.63 477.381Z" fill="white"/>
<path d="M1253 474.63C1253 476.153 1251.78 477.381 1250.26 477.381C1248.75 477.381 1247.52 476.153 1247.52 474.63C1247.52 473.107 1248.75 471.88 1250.26 471.88C1251.78 471.88 1253 473.107 1253 474.63Z" fill="white"/>
<path d="M1118.45 504.25C1118.45 505.773 1117.23 507 1115.72 507C1114.2 507 1112.98 505.773 1112.98 504.25C1112.98 502.727 1114.2 501.499 1115.72 501.499C1117.23 501.499 1118.45 502.727 1118.45 504.25Z" fill="white"/>
<path d="M1152.09 504.25C1152.09 505.773 1150.86 507 1149.35 507C1147.83 507 1146.61 505.773 1146.61 504.25C1146.61 502.727 1147.83 501.499 1149.35 501.499C1150.86 501.499 1152.09 502.727 1152.09 504.25Z" fill="white"/>
<path d="M1185.72 504.25C1185.72 505.773 1184.49 507 1182.98 507C1181.46 507 1180.24 505.773 1180.24 504.25C1180.24 502.727 1181.46 501.499 1182.98 501.499C1184.49 501.499 1185.72 502.727 1185.72 504.25Z" fill="white"/>
<path d="M1219.37 504.25C1219.37 505.773 1218.15 507 1216.63 507C1215.11 507 1213.89 505.773 1213.89 504.25C1213.89 502.727 1215.11 501.499 1216.63 501.499C1218.15 501.499 1219.37 502.727 1219.37 504.25Z" fill="white"/>
<path d="M1253 504.25C1253 505.773 1251.78 507 1250.26 507C1248.75 507 1247.52 505.773 1247.52 504.25C1247.52 502.727 1248.75 501.499 1250.26 501.499C1251.78 501.499 1253 502.727 1253 504.25Z" fill="white"/>
</g>
<g clip-path="url(#clip2_824_15)">
<path d="M215.565 413.105C216.429 413.105 217.13 412.41 217.13 411.553C217.13 410.695 216.429 410 215.565 410C214.701 410 214 410.695 214 411.553C214 412.41 214.701 413.105 215.565 413.105Z" fill="white"/>
<path d="M234.783 413.105C235.647 413.105 236.347 412.41 236.347 411.553C236.347 410.695 235.647 410 234.783 410C233.918 410 233.218 410.695 233.218 411.553C233.218 412.41 233.918 413.105 234.783 413.105Z" fill="white"/>
<path d="M254 413.105C254.864 413.105 255.565 412.41 255.565 411.553C255.565 410.695 254.864 410 254 410C253.136 410 252.435 410.695 252.435 411.553C252.435 412.41 253.136 413.105 254 413.105Z" fill="white"/>
<path d="M273.218 413.105C274.082 413.105 274.782 412.41 274.782 411.553C274.782 410.695 274.082 410 273.218 410C272.353 410 271.653 410.695 271.653 411.553C271.653 412.41 272.353 413.105 273.218 413.105Z" fill="white"/>
<path d="M294 411.553C294 412.412 293.301 413.105 292.435 413.105C291.568 413.105 290.87 412.412 290.87 411.553C290.87 410.693 291.568 410 292.435 410C293.301 410 294 410.693 294 411.553Z" fill="white"/>
<path d="M215.565 429.826C216.429 429.826 217.13 429.131 217.13 428.273C217.13 427.416 216.429 426.72 215.565 426.72C214.701 426.72 214 427.416 214 428.273C214 429.131 214.701 429.826 215.565 429.826Z" fill="white"/>
<path d="M234.783 429.826C235.647 429.826 236.347 429.131 236.347 428.273C236.347 427.416 235.647 426.72 234.783 426.72C233.918 426.72 233.218 427.416 233.218 428.273C233.218 429.131 233.918 429.826 234.783 429.826Z" fill="white"/>
<path d="M254 429.826C254.864 429.826 255.565 429.131 255.565 428.273C255.565 427.416 254.864 426.72 254 426.72C253.136 426.72 252.435 427.416 252.435 428.273C252.435 429.131 253.136 429.826 254 429.826Z" fill="white"/>
<path d="M273.218 429.826C274.082 429.826 274.782 429.131 274.782 428.273C274.782 427.416 274.082 426.72 273.218 426.72C272.353 426.72 271.653 427.416 271.653 428.273C271.653 429.131 272.353 429.826 273.218 429.826Z" fill="white"/>
<path d="M294 428.273C294 429.133 293.301 429.826 292.435 429.826C291.568 429.826 290.87 429.133 290.87 428.273C290.87 427.413 291.568 426.72 292.435 426.72C293.301 426.72 294 427.413 294 428.273V428.273Z" fill="white"/>
<path d="M215.565 446.546C216.429 446.546 217.13 445.851 217.13 444.994C217.13 444.136 216.429 443.441 215.565 443.441C214.701 443.441 214 444.136 214 444.994C214 445.851 214.701 446.546 215.565 446.546Z" fill="white"/>
<path d="M234.783 446.546C235.647 446.546 236.347 445.851 236.347 444.994C236.347 444.136 235.647 443.441 234.783 443.441C233.918 443.441 233.218 444.136 233.218 444.994C233.218 445.851 233.918 446.546 234.783 446.546Z" fill="white"/>
<path d="M254 446.546C254.864 446.546 255.565 445.851 255.565 444.994C255.565 444.136 254.864 443.441 254 443.441C253.136 443.441 252.435 444.136 252.435 444.994C252.435 445.851 253.136 446.546 254 446.546Z" fill="white"/>
<path d="M273.218 446.546C274.082 446.546 274.782 445.851 274.782 444.994C274.782 444.136 274.082 443.441 273.218 443.441C272.353 443.441 271.653 444.136 271.653 444.994C271.653 445.851 272.353 446.546 273.218 446.546Z" fill="white"/>
<path d="M294 444.994C294 445.853 293.301 446.546 292.435 446.546C291.568 446.546 290.87 445.853 290.87 444.994C290.87 444.134 291.568 443.441 292.435 443.441C293.301 443.441 294 444.134 294 444.994Z" fill="white"/>
<path d="M215.565 463.279C216.429 463.279 217.13 462.584 217.13 461.727C217.13 460.869 216.429 460.174 215.565 460.174C214.701 460.174 214 460.869 214 461.727C214 462.584 214.701 463.279 215.565 463.279Z" fill="white"/>
<path d="M234.783 463.279C235.647 463.279 236.347 462.584 236.347 461.727C236.347 460.869 235.647 460.174 234.783 460.174C233.918 460.174 233.218 460.869 233.218 461.727C233.218 462.584 233.918 463.279 234.783 463.279Z" fill="white"/>
<path d="M254 463.279C254.864 463.279 255.565 462.584 255.565 461.727C255.565 460.869 254.864 460.174 254 460.174C253.136 460.174 252.435 460.869 252.435 461.727C252.435 462.584 253.136 463.279 254 463.279Z" fill="white"/>
<path d="M273.218 463.279C274.082 463.279 274.782 462.584 274.782 461.727C274.782 460.869 274.082 460.174 273.218 460.174C272.353 460.174 271.653 460.869 271.653 461.727C271.653 462.584 272.353 463.279 273.218 463.279Z" fill="white"/>
<path d="M294 461.727C294 462.587 293.301 463.279 292.435 463.279C291.568 463.279 290.87 462.587 290.87 461.727C290.87 460.867 291.568 460.174 292.435 460.174C293.301 460.174 294 460.867 294 461.727Z" fill="white"/>
<path d="M217.117 478.447C217.117 479.307 216.419 480 215.552 480C214.686 480 213.987 479.307 213.987 478.447C213.987 477.587 214.686 476.895 215.552 476.895C216.419 476.895 217.117 477.587 217.117 478.447Z" fill="white"/>
<path d="M236.335 478.447C236.335 479.307 235.636 480 234.77 480C233.903 480 233.205 479.307 233.205 478.447C233.205 477.587 233.903 476.895 234.77 476.895C235.636 476.895 236.335 477.587 236.335 478.447Z" fill="white"/>
<path d="M255.552 478.447C255.552 479.307 254.854 480 253.987 480C253.121 480 252.422 479.307 252.422 478.447C252.422 477.587 253.121 476.895 253.987 476.895C254.854 476.895 255.552 477.587 255.552 478.447Z" fill="white"/>
<path d="M274.782 478.447C274.782 479.307 274.084 480 273.218 480C272.351 480 271.653 479.307 271.653 478.447C271.653 477.587 272.351 476.895 273.218 476.895C274.084 476.895 274.782 477.587 274.782 478.447Z" fill="white"/>
<path d="M294 478.447C294 479.307 293.302 480 292.435 480C291.569 480 290.871 479.307 290.871 478.447C290.871 477.587 291.569 476.895 292.435 476.895C293.302 476.895 294 477.587 294 478.447Z" fill="white"/>
</g>
</g>
<g filter="url(#filter0_d_824_15)">
<ellipse cx="720" cy="754" rx="839" ry="144" fill="white"/>
</g>
<path d="M677 700C844.895 700 981 689.255 981 676C981 662.745 844.895 652 677 652C509.105 652 373 662.745 373 676C373 689.255 509.105 700 677 700Z" fill="#F5F5F5" fill-opacity="0.6"/>
</g>
<defs>
<filter id="filter0_d_824_15" x="-144" y="564" width="1728" height="338" filterUnits="userSpaceOnUse" color-interpolation-filters="sRGB">
<feFlood flood-opacity="0" result="BackgroundImageFix"/>
<feColorMatrix in="SourceAlpha" type="matrix" values="0 0 0 0 0 0 0 0 0 0 0 0 0 0 0 0 0 0 127 0" result="hardAlpha"/>
<feOffset dy="-21"/>
<feGaussianBlur stdDeviation="12.5"/>
<feComposite in2="hardAlpha" operator="out"/>
<feColorMatrix type="matrix" values="0 0 0 0 0 0 0 0 0 0.0175 0 0 0 0 0.4375 0 0 0 0.1 0"/>
<feBlend mode="normal" in2="BackgroundImageFix" result="effect1_dropShadow_824_15"/>
<feBlend mode="normal" in="SourceGraphic" in2="effect1_dropShadow_824_15" result="shape"/>
</filter>
<linearGradient id="paint0_linear_824_15" x1="1859.67" y1="-750.911" x2="1859.67" y2="931.921" gradientUnits="userSpaceOnUse">
<stop stop-color="#8D8DFF"/>
<stop offset="0.99" stop-color="#2B00D9"/>
</linearGradient>
<clipPath id="clip0_824_15">
<rect width="1440" height="960" fill="white" transform="translate(0 3)"/>
</clipPath>
<clipPath id="clip1_824_15">
<rect width="140" height="124" fill="white" transform="translate(1113 383)"/>
</clipPath>
<clipPath id="clip2_824_15">
<rect width="80" height="70" fill="white" transform="translate(214 410)"/>
</clipPath>
</defs>
</svg>
