<svg width="254" height="62" viewBox="0 0 254 62" fill="none" xmlns="http://www.w3.org/2000/svg">
<path d="M29.7428 57.7951C29.4433 57.7951 28.2831 57.7951 27.9963 57.7951C18.3518 57.7951 10.5464 49.9006 10.6771 40.2126C10.7727 33.0743 15.238 26.9698 21.4625 24.4043C21.8323 24.2511 22.1223 23.5395 22.5016 23.415C23.2984 23.1502 24.0091 22.9715 24.8505 22.8247C25.9246 22.6364 27.2282 23.0959 28.3564 23.1183C31.7093 23.1885 34.8264 24.2128 37.4527 25.9264C42.4852 28.5239 45.3824 33.9007 46.2907 39.7659C46.4915 39.1628 46.5871 38.4224 46.5871 37.864C46.5871 23.2842 33.2233 11.8284 18.0873 15.1056C10.2118 16.8128 2.26612 24.7648 0.56416 32.6499C-2.71227 47.8009 8.72973 61.184 23.2952 61.184C27.7987 61.184 32.0026 59.9044 35.5658 57.6898C35.7093 57.6005 35.9324 57.4441 36.2033 57.2495C36.5379 57.007 36.2511 56.49 35.8686 56.64C35.6168 56.7389 35.3619 56.8315 35.1005 56.9176C33.4209 57.4888 31.6169 57.7951 29.7428 57.7951Z" fill="#F7F7F7"/>
<path d="M46.5521 36.5334C46.3098 39.868 44.8692 41.7922 43.7537 42.8804C42.6669 43.943 41.0733 45.3949 37.3347 45.4172C32.3085 45.4491 28.1588 41.0423 28.5445 34.7337V18.6668H14.7694V18.3318V32.8861C14.7694 35.7516 14.7312 38.5725 14.7694 40.5956C14.8141 42.8325 16.2961 55.086 29.6823 55.5934C48.764 56.3178 46.5521 36.5334 46.5521 36.5334ZM25.8608 25.5627C26.3102 25.5627 26.6736 25.9264 26.6736 26.3764C26.6736 26.8263 26.3102 27.1901 25.8608 27.1901C25.4115 27.1901 25.0481 26.8263 25.0481 26.3764C25.0449 25.9264 25.4115 25.5627 25.8608 25.5627ZM24.0983 23.3002C24.3788 23.3002 24.6083 23.53 24.6083 23.8108C24.6083 24.0916 24.3788 24.3213 24.0983 24.3213C23.8179 24.3213 23.5884 24.0916 23.5884 23.8108C23.5884 23.5268 23.8179 23.3002 24.0983 23.3002ZM23.8752 28.409C24.9079 28.409 25.7429 29.2451 25.7429 30.279C25.7429 31.3129 24.9079 32.1489 23.8752 32.1489C22.8426 32.1489 22.0075 31.3129 22.0075 30.279C22.0075 29.2451 22.8426 28.409 23.8752 28.409ZM34.7627 54.2468C26.8074 56.3433 18.7853 52.0099 16.363 44.3035C15.9296 42.9186 15.7575 41.4284 15.6555 39.9701C15.5376 38.2566 15.6268 35.9526 15.5981 34.2295L16.2037 33.9646C17.5869 33.4253 18.9542 33.47 20.3566 33.8497C21.0992 34.0508 21.8291 34.3061 22.5653 34.5422C24.876 35.2793 25.625 35.4644 27.7126 34.6922C27.3843 39.5074 29.0831 43.3941 33.5452 45.4396C37.8351 47.4052 41.9721 46.2405 45.3569 42.523C45.2963 43.2537 44.6971 51.1611 34.7627 54.2468Z" fill="#F7F7F7"/>
<path d="M28.5475 13.925V18.6668V14.1739L32.8598 13.4208C34.0263 13.2166 34.4693 11.7742 33.6183 10.9509L22.7277 0.407784C22.1763 -0.125117 21.3062 -0.137881 20.7421 0.382256L9.52958 10.6925C8.65948 11.4934 9.06107 12.9453 10.2212 13.1815L14.7629 14.0909L14.7693 18.3318V13.925H28.5475Z" fill="#F7F7F7"/>
<path d="M28.5477 18.6701V13.925H14.7695V18.3319V18.6701H28.5477Z" fill="#F7F7F7"/>
<path d="M21.8482 37.2258C21.5518 37.2258 21.3096 37.4683 21.3096 37.7651C21.3096 38.0619 21.5518 38.3044 21.8482 38.3044C22.1446 38.3044 22.3868 38.0619 22.3868 37.7651C22.3868 37.4652 22.1446 37.2258 21.8482 37.2258Z" fill="#F7F7F7"/>
<path d="M18.5716 36.5302C19.0908 36.5302 19.5118 36.1087 19.5118 35.5888C19.5118 35.0689 19.0908 34.6475 18.5716 34.6475C18.0523 34.6475 17.6313 35.0689 17.6313 35.5888C17.6313 36.1087 18.0523 36.5302 18.5716 36.5302Z" fill="#F7F7F7"/>
<path d="M215.572 36.9643C217.711 37.5514 218.906 38.8948 219.189 40.969C219.715 44.8046 217.554 47.584 213.593 47.951C211.145 48.1775 208.669 48.085 206.205 48.1265C205.287 48.1424 204.369 48.1297 203.403 48.1297C203.403 40.9562 203.403 33.8339 203.403 26.6892C203.448 26.6668 203.515 26.6094 203.579 26.6094C206.565 26.6445 209.561 26.5743 212.538 26.7817C213.778 26.8678 215.065 27.3752 216.174 27.9783C219.202 29.6153 219.444 35.0018 216.012 36.6739C215.884 36.7313 215.779 36.8239 215.572 36.9643ZM207.617 38.7225C207.617 40.6148 207.61 42.5517 207.636 44.4855C207.639 44.6004 207.926 44.811 208.082 44.811C209.402 44.8301 210.727 44.8812 212.041 44.7887C215.037 44.5812 215.384 42.4464 214.826 40.4042C214.578 39.4915 213.915 38.8055 212.99 38.7512C211.237 38.6491 209.472 38.7225 207.617 38.7225ZM207.655 35.7134C209.252 35.6145 210.798 35.6336 212.299 35.3879C213.599 35.1741 214.253 34.1562 214.259 32.8415C214.265 31.4342 213.663 30.4195 212.347 30.1865C210.826 29.9185 209.258 29.9153 207.655 29.7908C207.655 31.8299 207.655 33.6615 207.655 35.7134Z" fill="#F7F7F7"/>
<path d="M106.131 37.746C106.245 37.8226 106.319 37.896 106.408 37.9279C108.597 38.6938 109.413 40.3946 109.534 42.5549C109.569 43.1771 109.544 43.8026 109.547 44.4248C109.554 45.714 109.745 46.9489 110.777 48.1328C110.258 48.1328 109.926 48.1328 109.598 48.1328C108.926 48.1328 108.253 48.1328 107.581 48.1328C105.891 48.1328 105.649 47.9573 105.436 46.2373C105.308 45.2003 105.311 44.1472 105.292 43.1006C105.244 40.6307 104.18 39.5521 101.71 39.5266C100.467 39.5139 99.2271 39.5234 97.9203 39.5234C97.9203 42.3985 97.9203 45.2066 97.9203 48.0722C96.4797 48.0722 95.1061 48.0722 93.6846 48.0722C93.6846 40.9275 93.6846 33.8051 93.6846 26.7083C93.7706 26.6604 93.8152 26.6157 93.8567 26.6157C97.1172 26.6572 100.39 26.5519 103.638 26.7912C106.064 26.9699 108.068 28.157 108.996 30.6077C110.095 33.5147 109.165 36.0069 106.472 37.5354C106.363 37.596 106.264 37.6631 106.131 37.746ZM97.9267 36.1282C99.5522 36.1282 101.149 36.243 102.717 36.0963C104.279 35.9495 105.053 34.9475 105.158 33.3711C105.26 31.8107 104.543 30.4226 103.16 30.1833C101.449 29.8865 99.6797 29.9121 97.9235 29.7972C97.9267 32.0564 97.9267 34.0891 97.9267 36.1282Z" fill="#F7F7F7"/>
<path d="M147.911 26.7305C151.219 26.7305 154.464 26.5933 157.689 26.7752C160.121 26.9124 162.196 28.0357 163.133 30.4704C164.182 33.186 163.64 36.0483 160.669 37.5385C160.564 37.5928 160.465 37.663 160.344 37.7364C160.43 37.8066 160.478 37.8704 160.545 37.8959C162.856 38.7096 163.697 40.4807 163.726 42.7814C163.732 43.4292 163.71 44.0801 163.748 44.7279C163.815 45.899 164.006 47.0414 164.959 48.12C163.347 48.12 161.938 48.1647 160.539 48.0785C160.287 48.0625 159.93 47.5392 159.86 47.201C159.675 46.2788 159.595 45.331 159.513 44.3929C159.439 43.5504 159.493 42.692 159.353 41.8624C159.143 40.6211 158.209 39.6989 156.969 39.6223C155.385 39.5266 153.792 39.5999 152.09 39.5999C152.09 42.4144 152.09 45.2353 152.09 48.0945C150.639 48.0945 149.304 48.0945 147.905 48.0945C147.911 40.9561 147.911 33.8178 147.911 26.7305ZM152.077 36.109C153.782 36.109 155.407 36.243 156.998 36.0707C158.633 35.8952 159.395 34.7719 159.372 33.0743C159.35 31.4277 158.426 30.2502 156.877 30.0237C156.045 29.9024 155.194 29.912 154.349 29.9024C153.632 29.896 152.612 29.6727 152.281 30.0428C151.898 30.4704 152.096 31.4437 152.086 32.1808C152.061 33.4955 152.077 34.8102 152.077 36.109Z" fill="#F7F7F7"/>
<path d="M238.188 32.8477C236.795 32.8477 235.485 32.8477 234.131 32.8477C234.089 32.6466 234.048 32.4584 234.013 32.2669C233.825 31.2075 233.251 30.4257 232.266 30.0013C230.947 29.4301 229.595 29.4429 228.276 30.0013C227.329 30.4034 226.775 31.1532 226.708 32.1903C226.641 33.2115 227.192 33.9294 228.062 34.3251C229.213 34.8516 230.399 35.3112 231.597 35.7164C233.258 36.2748 234.883 36.8843 236.257 38.0108C239.358 40.5572 238.956 45.3023 235.476 47.2871C232.19 49.1602 226.956 48.723 224.034 46.333C222.539 45.1108 221.882 43.5217 221.908 41.5432C223.288 41.5432 224.639 41.5432 226.019 41.5432C226.042 41.7155 226.064 41.8847 226.083 42.057C226.258 43.56 227.078 44.5268 228.531 44.9257C229.803 45.2767 231.09 45.3278 232.352 44.8842C233.257 44.5651 233.882 43.9556 234.022 42.96C234.175 41.8879 233.911 40.9178 232.955 40.3562C232.107 39.8584 231.157 39.5233 230.246 39.1372C228.601 38.4415 226.893 37.8735 225.309 37.0598C221.484 35.0942 221.459 29.679 225.436 27.4708C228.54 25.7476 233.219 25.9295 235.852 27.9973C237.388 29.2035 238.268 30.748 238.188 32.8477Z" fill="#F7F7F7"/>
<path d="M127.921 48.0944C123.08 48.0944 118.306 48.0944 113.49 48.0944C113.49 40.9369 113.49 33.8145 113.49 26.6443C118.296 26.6443 123.086 26.6443 127.918 26.6443C127.918 27.7069 127.918 28.744 127.918 29.8608C127.647 29.8736 127.386 29.8959 127.121 29.8959C124.231 29.8991 121.34 29.9151 118.452 29.8832C117.818 29.8768 117.646 30.081 117.665 30.6905C117.706 32.0116 117.7 33.3359 117.665 34.657C117.649 35.2122 117.821 35.3909 118.382 35.3845C120.75 35.3558 123.115 35.3717 125.483 35.3717C125.78 35.3717 126.076 35.3717 126.433 35.3717C126.433 36.4822 126.433 37.5353 126.433 38.6681C123.529 38.6681 120.651 38.6681 117.726 38.6681C117.726 40.7327 117.726 42.7143 117.726 44.7885C121.117 44.7885 124.489 44.7885 127.921 44.7885C127.921 45.934 127.921 46.9871 127.921 48.0944Z" fill="#F7F7F7"/>
<path d="M143.647 35.3718C143.647 36.5301 143.647 37.564 143.647 38.6809C140.721 38.6809 137.843 38.6809 134.924 38.6809C134.924 40.7455 134.924 42.7303 134.924 44.8013C138.331 44.8013 141.703 44.8013 145.129 44.8013C145.129 45.9436 145.129 46.9967 145.129 48.0912C140.326 48.0912 135.552 48.0912 130.713 48.0912C130.713 40.9625 130.713 33.8209 130.713 26.6379C135.491 26.6379 140.262 26.6379 145.097 26.6379C145.097 27.6814 145.097 28.7376 145.097 29.8609C144.836 29.8736 144.571 29.896 144.307 29.896C141.416 29.8992 138.525 29.9119 135.638 29.8864C135.067 29.88 134.844 30.0204 134.866 30.6331C134.911 31.9797 134.905 33.3263 134.869 34.6729C134.854 35.2505 135.064 35.3877 135.606 35.3814C137.974 35.3558 140.339 35.3718 142.707 35.3718C142.997 35.3718 143.29 35.3718 143.647 35.3718Z" fill="#F7F7F7"/>
<path d="M91.6094 48.1137C90.1433 48.1137 88.776 48.1137 87.3354 48.1137C86.9179 46.7735 86.4781 45.4332 86.0892 44.077C85.9554 43.6143 85.7418 43.4644 85.2574 43.4707C83.1666 43.4995 81.0726 43.4963 78.9818 43.4739C78.5356 43.4676 78.3221 43.5984 78.1946 44.0419C77.8026 45.4045 77.3627 46.7511 76.9388 48.1105C75.5301 48.1105 74.1628 48.1105 72.6616 48.1105C75.1094 40.9115 77.538 33.7668 79.973 26.5966C81.3021 26.5966 82.5961 26.6189 83.8901 26.5838C84.4032 26.5711 84.4351 26.9221 84.5403 27.238C86.204 32.1426 87.8581 37.0472 89.5186 41.9518C90.2071 43.9749 90.8923 46.0012 91.6094 48.1137ZM82.2327 31.7405C82.1754 31.731 82.118 31.7182 82.0606 31.7086C81.1937 34.4976 80.3268 37.2833 79.4471 40.1202C81.2734 40.1202 82.9913 40.1202 84.8207 40.1202C83.9411 37.2706 83.0869 34.5072 82.2327 31.7405Z" fill="#F7F7F7"/>
<path d="M201.239 48.1073C199.847 48.1073 198.479 48.1073 197.051 48.1073C196.637 46.783 196.204 45.4619 195.821 44.1249C195.681 43.6399 195.471 43.4612 194.942 43.4676C192.675 43.5027 190.409 43.4835 188.108 43.4835C187.621 45.0343 187.142 46.5501 186.658 48.0945C185.252 48.0945 183.863 48.0945 182.394 48.0945C182.916 46.5437 183.426 45.0152 183.946 43.4899C185.775 38.113 187.617 32.7425 189.418 27.3561C189.622 26.7434 189.899 26.5519 190.521 26.5806C191.541 26.6317 192.564 26.5743 193.584 26.6125C193.788 26.6189 194.103 26.82 194.164 26.9987C196.535 33.9519 198.887 40.9147 201.236 47.8744C201.252 47.919 201.239 47.9733 201.239 48.1073ZM189.17 40.117C191.037 40.117 192.755 40.117 194.546 40.117C193.663 37.2674 192.803 34.5008 191.946 31.731C191.888 31.7341 191.831 31.7373 191.773 31.7437C190.913 34.504 190.056 37.2642 189.17 40.117Z" fill="#F7F7F7"/>
<path d="M71.3358 33.971C70.01 33.971 68.6777 33.971 67.3168 33.971C67.2467 33.4795 67.2021 33.0136 67.1096 32.5573C66.8355 31.2107 66.1248 30.2183 64.7511 29.8354C63.2372 29.4142 61.7775 29.4333 60.56 30.6044C59.6006 31.5234 59.0684 32.7009 59.0174 33.9997C58.9345 36.1887 58.909 38.3905 59.0269 40.5764C59.0747 41.4571 59.4349 42.3857 59.8811 43.1643C60.9807 45.0885 63.5591 45.7203 65.5033 44.6513C66.7081 43.9908 67.0618 42.8388 67.2212 41.5879C67.2499 41.3677 67.2499 41.1412 67.2722 40.8093C67.9383 40.8093 68.6012 40.8093 69.2642 40.8093C69.9367 40.8093 70.606 40.8093 71.4825 40.8093C71.3327 41.7602 71.2849 42.6761 71.0363 43.5345C70.3861 45.7554 68.8722 47.2041 66.7017 47.9253C64.6906 48.5922 62.6221 48.6816 60.595 48.0561C57.2995 47.035 55.2979 44.7119 54.89 41.3454C54.5872 38.8405 54.584 36.2493 54.8422 33.738C55.3457 28.8111 59.2915 25.7923 64.2061 26.3572C65.2324 26.4752 66.2842 26.6954 67.2403 27.0783C70.0355 28.192 71.7661 31.1628 71.3358 33.971Z" fill="#F7F7F7"/>
<path d="M171.911 44.8076C175.076 44.8076 178.154 44.8076 181.297 44.8076C181.297 45.9245 181.297 46.9807 181.297 48.0816C176.778 48.0816 172.255 48.0816 167.685 48.0816C167.685 40.9464 167.685 33.8241 167.685 26.6475C169.074 26.6475 170.448 26.6475 171.908 26.6475C171.911 32.7008 171.911 38.7223 171.911 44.8076Z" fill="#F7F7F7"/>
<path d="M237.64 18.2888V17.5075H243.094V18.2888H240.807V24.7803H239.927V18.2888H237.64ZM244.453 17.5075H245.505L247.976 23.5445H248.061L250.533 17.5075H251.584V24.7803H250.76V19.2547H250.689L248.417 24.7803H247.621L245.348 19.2547H245.277V24.7803H244.453V17.5075Z" fill="#F7F7F7"/>
</svg>
